<svg width="576" height="121" viewBox="0 0 576 121" fill="none" xmlns="http://www.w3.org/2000/svg">
<path d="M468.615 59.9933C468.535 65.9233 467.645 71.7319 464.333 76.9275C460.945 82.2445 456.039 85.0517 449.705 84.8393C443.103 84.6208 438.387 81.1702 435.365 75.4496C433.093 71.1432 432.231 66.4999 432.075 61.6503C431.909 56.4759 432.353 51.4291 434.35 46.6098C437.561 38.8619 443.843 34.1883 452.51 35.2292C458.776 35.9819 462.841 39.742 465.55 45.1318C467.887 49.7811 468.553 54.7886 468.615 59.9903V59.9933ZM437.68 59.9356C437.671 61.6503 437.781 63.3589 438.032 65.0523C438.546 68.512 439.411 71.8533 441.531 74.7455C443.779 77.8137 446.886 79.4646 450.644 79.3311C454.935 79.1763 458.232 76.9518 460.03 73.1097C463.951 64.7367 463.838 56.1816 460.467 47.6629C459.275 44.6493 457.103 42.3701 453.966 41.2564C448.812 39.4264 443.748 41.3778 440.803 46.2881C438.283 50.4913 437.812 55.1831 437.677 59.9356H437.68Z" fill="#9855D9"/>
<path d="M506.88 79.1535C506.868 81.1261 507.485 82.8894 506.51 84.4857H474.872C474.536 83.0502 474.774 81.6512 474.698 80.2066C477.062 77.718 479.456 75.2568 481.784 72.7288C486.539 67.5666 491.686 62.7564 496.096 57.2877C497.931 55.0116 499.139 52.429 499.139 49.4215C499.139 44.4869 496.567 41.3792 491.656 40.7783C486.429 40.141 481.652 41.1273 478.022 45.3336C477.71 45.6947 477.337 45.9223 476.725 45.9709C475.578 44.8905 474.37 43.7555 473.086 42.5446C475.826 38.8937 479.423 36.6358 483.854 35.7163C488.867 34.6784 493.818 34.6116 498.5 37.0971C503.883 39.9529 505.357 45.5824 504.806 50.7113C504.262 55.7915 501.451 59.6913 498.118 63.2875C493.252 68.5347 488.313 73.7121 483.187 79.1505H506.877L506.88 79.1535Z" fill="#9855D9"/>
<path d="M394.361 84.4486C393.254 83.3136 394.101 81.8235 393.759 80.4123C396.395 77.6173 399.037 74.8404 401.652 72.0363C406.273 67.0865 411.215 62.4281 415.445 57.1323C417.956 53.9913 419.096 50.3981 417.98 46.4103C416.974 42.8141 413.797 40.7959 409.457 40.626C404.634 40.4348 400.426 41.6942 397.138 45.3724C396.912 45.6273 396.585 45.7912 396.294 46.0037C394.725 45.1994 393.829 43.7184 392.389 42.6805C393.624 40.365 395.606 38.881 397.78 37.7308C403.472 34.7172 409.487 34.2104 415.616 36.1527C420.87 37.8188 423.815 42.3589 424.063 47.8367C424.335 53.8456 421.742 58.5314 417.858 62.7255C412.916 68.0607 407.894 73.323 402.909 78.6218C402.817 78.7189 402.765 78.8524 402.579 79.165H425.984C426.201 80.9981 426.155 82.6642 426.023 84.4517H394.364L394.361 84.4486Z" fill="#9855D9"/>
<path d="M332.777 58.1526V63.4696H308.269V80.158H334.331V85.6176H301.602V57.8643C311.908 58.277 322.297 58.0858 332.774 58.1526H332.777Z" fill="white"/>
<path d="M378.421 80.1036V85.6391H345.729V57.8584C356.001 58.2742 366.35 58.0951 376.788 58.1497V63.5547H352.267V80.1036H378.418H378.421Z" fill="white"/>
<path d="M283.538 79.5293V63.3963H289.933V83.7143C286.869 84.9374 283.664 85.5777 280.364 85.8448C275.21 86.2605 270.143 85.8691 265.198 84.3274C257.35 81.8813 252.787 76.4915 251.053 68.6344C250.28 65.1322 250.069 61.5784 250.304 57.9609H256.986C256.986 59.3387 256.95 60.7256 256.992 62.1095C257.197 68.9045 259.097 74.8861 265.614 78.3154C269.953 80.5976 274.697 81.0103 279.523 80.4216C280.807 80.2638 282.171 80.3457 283.538 79.5293Z" fill="white"/>
<path d="M56.8672 78.1338V70.6953H76.2774V78.1338H56.8672Z" fill="#9855D9"/>
<path d="M64.5463 52.2852V59.8708H45.1543V52.2852H64.5483H64.5463Z" fill="#9855D9"/>
<path d="M67.0059 52.29H86.3552V59.8797H67.0059V52.29Z" fill="#9855D9"/>
<path d="M45.1484 69.0306V61.582H64.5302V69.0306H45.1484Z" fill="#9855D9"/>
<path d="M35.166 70.6738H54.4422V78.1425H35.166V70.6738Z" fill="#9855D9"/>
<path d="M86.3637 61.5586V69.0112H66.9961V61.5586H86.3637Z" fill="#9855D9"/>
<path d="M56.8574 87.23V79.8701H76.2575V87.23H56.8574Z" fill="#9855D9"/>
<path d="M42.748 69.0511H24V61.5723H42.748V69.0511Z" fill="#9855D9"/>
<path d="M156.164 49.8117H149.479V36.9289C149.849 36.5496 150.28 36.6892 150.665 36.6892C157.736 36.6801 164.81 36.6952 171.88 36.674C173.578 36.6679 175.229 36.935 176.841 37.3781C181.869 38.7619 184.48 42.2307 184.707 47.7207C184.734 48.3671 184.71 49.0166 184.71 49.7904H177.667C177.611 48.7859 177.679 47.8117 177.489 46.8922C176.936 44.2367 174.893 42.34 171.871 42.2307C166.697 42.0456 161.513 42.1791 156.161 42.1791V49.8056L156.164 49.8117Z" fill="white"/>
<path d="M111.705 70.282C112.384 68.3397 112.944 66.7373 113.552 64.9892H125.7C124.69 62.5098 123.779 60.2792 122.837 57.9697H129.908C133.829 67.0802 137.765 76.2302 141.798 85.6077H134.777C132.651 80.6489 130.464 75.5382 128.211 70.282H111.705Z" fill="white"/>
<path d="M259.183 49.8309H251.861C253.488 45.4001 256.173 42.0527 260.189 39.7705C264.391 37.3821 269.015 36.584 273.752 36.3412C278.906 36.0772 283.991 36.6325 288.973 37.9952C289.304 38.0862 289.609 38.2744 289.943 38.4261V44.0223C287.848 43.4396 285.915 42.7113 283.887 42.3501C278.419 41.379 272.991 41.2758 267.642 43.0481C263.984 44.259 261.125 46.4532 259.183 49.834V49.8309Z" fill="white"/>
<path d="M308.242 49.8337H301.594V36.79H333.877V41.9614H308.242V49.8337Z" fill="white"/>
<path d="M345.713 36.7686H378.048V42.0218H352.212V49.7849H345.713V36.7686Z" fill="white"/>
<path d="M92.4727 85.6205C96.4759 76.2672 100.39 67.1142 104.311 57.9521H110.932C107.067 67.2356 103.229 76.4524 99.4088 85.6205H92.4727Z" fill="white"/>
<path d="M149.525 57.9756H156.021V85.6713C153.838 85.8412 151.74 85.7866 149.525 85.7016V57.9756Z" fill="white"/>
<path d="M237.792 57.3849C238.988 57.8826 240.285 57.7885 241.523 57.9918C242.496 68.7776 239.48 78.7439 231.257 82.9805C230.914 81.0352 231.339 79.0565 230.728 77.1992C230.688 76.9989 230.651 76.7955 230.611 76.5892C230.871 75.2933 231.373 74.1036 232.116 73.005C232.829 71.952 233.244 70.7684 233.593 69.5545C234.673 65.7974 234.896 61.9644 234.575 58.0252C235.453 57.8674 236.33 57.8644 237.092 57.4334L237.798 57.3818L237.792 57.3849Z" fill="white"/>
<path d="M202.578 75.1517C202.104 77.5189 202.309 79.9285 202.162 82.3291C195.434 79.1516 191.577 70.0047 192.568 57.9929C194.284 57.8108 196.079 58.0263 197.74 57.3556C197.932 57.5316 198.085 57.386 198.247 57.2949C198.682 57.5286 199.116 57.7592 199.578 58.0081C199.064 61.4101 199.48 64.7272 200.168 68.029C200.627 70.2202 201.871 72.0896 202.645 74.1503C202.621 74.4841 202.596 74.8179 202.575 75.1487L202.578 75.1517Z" fill="white"/>
<path d="M126.419 49.8309H119.443C118.642 47.9493 117.865 46.1254 116.954 43.9889C115.731 45.9585 115.263 47.9554 114.281 49.8127H107.807C109.691 45.4092 111.538 41.0967 113.397 36.7539H120.768C122.606 41.0087 124.468 45.3181 126.419 49.8339V49.8309Z" fill="white"/>
<path d="M32.4755 70.7158V78.2914H24.9531V70.7158H32.4755Z" fill="white"/>
<path d="M86.2038 78.3402H78.6855V70.7002H86.2038V78.3402Z" fill="white"/>
<path d="M78.6523 41.6031V34.0195H86.2133V41.6031H78.6523Z" fill="white"/>
<path d="M78.6895 43.2246H86.1854V50.7518H78.6895V43.2246Z" fill="white"/>
<path d="M78.5156 87.4198V79.8604H86.2086V87.4198H78.5156Z" fill="white"/>
<path d="M42.5996 59.8991H35V52.4404H42.5996V59.8991Z" fill="white"/>
<path d="M163.602 59.6451C169.238 57.2294 175.079 58.0609 181.22 57.9001C176.526 62.5312 170.834 63.8817 164.895 64.956C164.44 63.0805 164.017 61.3537 163.602 59.6421V59.6451Z" fill="white"/>
<path d="M230.675 45.8116C231.318 43.7267 231 41.5507 231.201 39.2686C235.633 41.6327 238.336 45.1986 240 49.766C238.327 50.2273 236.611 49.6597 235.03 50.2455C234.783 50.291 234.529 50.3395 234.275 50.3881C233.666 50.203 233.058 50.0179 232.483 49.8449C231.838 48.5945 230.77 47.6477 230.639 46.2243C230.651 46.0847 230.663 45.9451 230.675 45.8086V45.8116Z" fill="white"/>
<path d="M200.519 50.2445C198.454 49.6436 196.28 50.2294 194.127 49.759C195.653 45.5163 198.167 42.175 202.354 39.6045C202.354 41.8715 202.354 43.9079 202.354 45.9472C202.354 46.5542 202.344 47.1642 202.751 47.6801C202.834 47.8045 202.916 47.929 202.999 48.0564C202.341 48.8485 202.286 50.1383 201.011 50.4206C200.873 50.287 200.754 50.1049 200.519 50.2445Z" fill="white"/>
<path d="M202.579 75.1519C202.604 74.818 202.628 74.4842 202.65 74.1504C202.986 74.4539 203.332 74.7513 203.659 75.0639C210.014 81.1456 218.219 82.5659 226.299 79.0273C227.828 78.3566 229.021 77.1306 230.608 76.5843C230.648 76.7876 230.688 76.994 230.724 77.1943C222.311 84.1562 210.096 83.273 202.576 75.1519H202.579Z" fill="#9855D9"/>
<path d="M202.996 48.0558C202.913 47.9313 202.831 47.8039 202.748 47.6794C204.516 45.0786 207.195 43.6583 209.972 42.499C216.547 39.7586 222.862 40.5932 228.899 44.1833C229.603 44.6021 230.199 45.1393 230.673 45.81C230.661 45.9526 230.649 46.0922 230.636 46.2318C229.263 45.8191 228.278 44.7569 227.015 44.1378C220.868 41.1151 214.74 41.1303 208.556 44.0164C206.427 45.0088 204.8 46.6446 202.996 48.0588V48.0558Z" fill="#9855D9"/>
<path d="M234.275 50.3926C234.526 50.3441 234.78 50.2955 235.028 50.25C236.34 52.4836 237.639 54.7172 237.792 57.3879C237.554 57.403 237.318 57.4213 237.083 57.4395C236.584 54.9206 235.327 52.6961 234.275 50.3926Z" fill="#9855D9"/>
<path d="M200.518 50.2426C200.754 50.103 200.873 50.2851 201.011 50.4186C200.09 52.7099 199.166 55.0042 198.246 57.2955C198.084 57.3865 197.931 57.5322 197.738 57.3562C197.858 54.6734 199.197 52.461 200.518 50.2426Z" fill="#9855D9"/>
<path d="M207.57 61.3442C207.157 56.619 211.83 51.1746 217.812 51.217C223.048 51.2535 228.134 55.6782 228.03 61.6204C227.941 66.643 223.733 71.6383 217.534 71.5654C211.858 71.4987 207.185 66.4761 207.57 61.3412V61.3442Z" fill="#9855D9"/>
<path d="M530.346 85.4132C526.903 85.4132 523.62 84.8623 520.498 83.7603C517.376 82.6125 514.897 81.0974 513.06 79.215L515.47 75.2894C516.986 76.8963 519.052 78.2278 521.669 79.2838C524.332 80.3398 527.201 80.8678 530.277 80.8678C534.364 80.8678 537.463 79.9725 539.575 78.1819C541.733 76.3454 542.812 73.9579 542.812 71.0195C542.812 68.9534 542.307 67.1857 541.297 65.7165C540.332 64.2014 538.68 63.0306 536.338 62.2042C533.996 61.3777 530.782 60.9645 526.696 60.9645H516.435L518.914 36.7913H545.291V41.199H520.911L523.459 38.7885L521.324 59.0362L518.776 56.5569H527.798C532.665 56.5569 536.568 57.1537 539.506 58.3475C542.444 59.5412 544.556 61.217 545.842 63.375C547.173 65.487 547.839 67.9663 547.839 70.8129C547.839 73.5217 547.196 76.001 545.911 78.2508C544.625 80.4546 542.697 82.1993 540.126 83.4849C537.555 84.7704 534.295 85.4132 530.346 85.4132Z" fill="#9855D9"/>
<path d="M520.498 83.7603L520.325 84.2297L520.332 84.2318L520.498 83.7603ZM513.06 79.215L512.634 78.9533L512.43 79.2853L512.702 79.5641L513.06 79.215ZM515.47 75.2894L515.834 74.9464L515.386 74.4711L515.044 75.0278L515.47 75.2894ZM521.669 79.2838L521.482 79.7475L521.484 79.7486L521.669 79.2838ZM539.575 78.1819L539.898 78.5633L539.899 78.5627L539.575 78.1819ZM541.297 65.7165L540.875 65.985L540.88 65.9925L540.885 65.9998L541.297 65.7165ZM536.338 62.2042L536.504 61.7327L536.504 61.7327L536.338 62.2042ZM516.435 60.9645L515.937 60.9135L515.881 61.4645H516.435V60.9645ZM518.914 36.7913V36.2913H518.463L518.417 36.7403L518.914 36.7913ZM545.291 36.7913H545.791V36.2913H545.291V36.7913ZM545.291 41.199V41.699H545.791V41.199H545.291ZM520.911 41.199L520.568 40.8357L519.655 41.699H520.911V41.199ZM523.459 38.7885L523.957 38.841L524.098 37.4957L523.116 38.4253L523.459 38.7885ZM521.324 59.0362L520.976 59.3945L521.714 60.1125L521.822 59.0886L521.324 59.0362ZM518.776 56.5569V56.0569H517.545L518.428 56.9152L518.776 56.5569ZM545.842 63.375L545.412 63.6309L545.419 63.6416L545.842 63.375ZM545.911 78.2508L546.343 78.5027L546.345 78.4989L545.911 78.2508ZM540.126 83.4849L539.902 83.0377L539.902 83.0377L540.126 83.4849ZM530.346 84.9132C526.957 84.9132 523.731 84.3712 520.664 83.2889L520.332 84.2318C523.509 85.3534 526.848 85.9132 530.346 85.9132V84.9132ZM520.67 83.2911C517.6 82.1623 515.191 80.6827 513.418 78.8658L512.702 79.5641C514.603 81.5121 517.151 83.0627 520.325 84.2296L520.67 83.2911ZM513.486 79.4766L515.897 75.551L515.044 75.0278L512.634 78.9533L513.486 79.4766ZM515.107 75.6324C516.683 77.3043 518.816 78.6717 521.482 79.7475L521.856 78.8202C519.288 77.7839 517.288 76.4884 515.834 74.9464L515.107 75.6324ZM521.484 79.7486C524.21 80.8295 527.143 81.3678 530.277 81.3678V80.3678C527.26 80.3678 524.453 79.8501 521.853 78.819L521.484 79.7486ZM530.277 81.3678C534.427 81.3678 537.661 80.4597 539.898 78.5633L539.251 77.8005C537.264 79.4854 534.3 80.3678 530.277 80.3678V81.3678ZM539.899 78.5627C542.173 76.6272 543.312 74.0983 543.312 71.0195H542.312C542.312 73.8176 541.292 76.0636 539.251 77.8011L539.899 78.5627ZM543.312 71.0195C543.312 68.8688 542.785 66.9985 541.709 65.4333L540.885 65.9998C541.829 67.373 542.312 69.038 542.312 71.0195H543.312ZM541.718 65.4481C540.675 63.8083 538.912 62.5823 536.504 61.7327L536.172 62.6757C538.447 63.4789 539.99 64.5945 540.875 65.985L541.718 65.4481ZM536.504 61.7327C534.086 60.8791 530.807 60.4645 526.696 60.4645V61.4645C530.757 61.4645 533.907 61.8764 536.172 62.6757L536.504 61.7327ZM526.696 60.4645H516.435V61.4645H526.696V60.4645ZM516.932 61.0155L519.411 36.8423L518.417 36.7403L515.937 60.9135L516.932 61.0155ZM518.914 37.2913H545.291V36.2913H518.914V37.2913ZM544.791 36.7913V41.199H545.791V36.7913H544.791ZM545.291 40.699H520.911V41.699H545.291V40.699ZM521.255 41.5622L523.803 39.1518L523.116 38.4253L520.568 40.8357L521.255 41.5622ZM522.962 38.7361L520.827 58.9837L521.822 59.0886L523.957 38.841L522.962 38.7361ZM521.673 58.6778L519.125 56.1985L518.428 56.9152L520.976 59.3945L521.673 58.6778ZM518.776 57.0569H527.798V56.0569H518.776V57.0569ZM527.798 57.0569C532.631 57.0569 536.462 57.6507 539.318 58.8107L539.694 57.8842C536.673 56.6568 532.699 56.0569 527.798 56.0569V57.0569ZM539.318 58.8107C542.182 59.9744 544.196 61.5887 545.412 63.6309L546.272 63.1191C544.917 60.8454 542.707 59.1081 539.694 57.8842L539.318 58.8107ZM545.419 63.6416C546.693 65.663 547.339 68.0471 547.339 70.8129H548.339C548.339 67.8854 547.654 65.3109 546.265 63.1083L545.419 63.6416ZM547.339 70.8129C547.339 73.4388 546.717 75.832 545.477 78.0027L546.345 78.4989C547.676 76.1701 548.339 73.6046 548.339 70.8129H547.339ZM545.479 77.9988C544.248 80.1084 542.398 81.7899 539.902 83.0377L540.349 83.9321C542.996 82.6087 545.002 80.8008 546.343 78.5027L545.479 77.9988ZM539.902 83.0377C537.421 84.278 534.245 84.9132 530.346 84.9132V85.9132C534.345 85.9132 537.688 85.2628 540.349 83.9321L539.902 83.0377Z" fill="#9855D9"/>
</svg>
