<svg width="576" height="121" viewBox="0 0 576 121" fill="none" xmlns="http://www.w3.org/2000/svg">
<path d="M332.777 58.1535V63.4705H308.269V80.1589H334.331V85.6185H301.602V57.8652C311.908 58.2779 322.297 58.0867 332.774 58.1535H332.777Z" fill="white"/>
<path d="M378.421 80.1046V85.6401H345.729V57.8594C356.001 58.2752 366.35 58.0961 376.788 58.1507V63.5557H352.267V80.1046H378.418H378.421Z" fill="white"/>
<path d="M283.538 79.5293V63.3963H289.933V83.7143C286.869 84.9374 283.664 85.5777 280.364 85.8448C275.21 86.2605 270.143 85.8691 265.198 84.3274C257.35 81.8813 252.787 76.4915 251.053 68.6344C250.28 65.1322 250.069 61.5784 250.304 57.9609H256.986C256.986 59.3387 256.95 60.7256 256.992 62.1095C257.197 68.9045 259.097 74.8861 265.614 78.3154C269.953 80.5976 274.697 81.0103 279.523 80.4216C280.807 80.2638 282.171 80.3457 283.538 79.5293Z" fill="white"/>
<path d="M56.8672 78.1338V70.6953H76.2774V78.1338H56.8672Z" fill="#9855D9"/>
<path d="M64.5463 52.2852V59.8708H45.1543V52.2852H64.5483H64.5463Z" fill="#9855D9"/>
<path d="M67.0059 52.2891H86.3552V59.8788H67.0059V52.2891Z" fill="#9855D9"/>
<path d="M45.1484 69.0306V61.582H64.5302V69.0306H45.1484Z" fill="#9855D9"/>
<path d="M35.166 70.6738H54.4422V78.1425H35.166V70.6738Z" fill="#9855D9"/>
<path d="M86.3637 61.5586V69.0112H66.9961V61.5586H86.3637Z" fill="#9855D9"/>
<path d="M56.8574 87.229V79.8691H76.2575V87.229H56.8574Z" fill="#9855D9"/>
<path d="M42.748 69.0511H24V61.5723H42.748V69.0511Z" fill="#9855D9"/>
<path d="M156.164 49.8117H149.479V36.9289C149.849 36.5496 150.28 36.6892 150.665 36.6892C157.736 36.6801 164.81 36.6952 171.88 36.674C173.578 36.6679 175.229 36.935 176.841 37.3781C181.869 38.7619 184.48 42.2307 184.707 47.7207C184.734 48.3671 184.71 49.0166 184.71 49.7904H177.667C177.611 48.7859 177.679 47.8117 177.489 46.8922C176.936 44.2367 174.893 42.34 171.871 42.2307C166.697 42.0456 161.513 42.1791 156.161 42.1791V49.8056L156.164 49.8117Z" fill="white"/>
<path d="M111.705 70.281C112.384 68.3387 112.944 66.7363 113.552 64.9882H125.7C124.69 62.5088 123.779 60.2782 122.837 57.9688H129.908C133.829 67.0793 137.765 76.2292 141.798 85.6067H134.777C132.651 80.6479 130.464 75.5372 128.211 70.281H111.705Z" fill="white"/>
<path d="M259.183 49.8309H251.861C253.488 45.4001 256.173 42.0527 260.189 39.7705C264.391 37.3821 269.015 36.584 273.752 36.3412C278.906 36.0772 283.991 36.6325 288.973 37.9952C289.304 38.0862 289.609 38.2744 289.943 38.4261V44.0223C287.848 43.4396 285.915 42.7113 283.887 42.3501C278.419 41.379 272.991 41.2758 267.642 43.0481C263.984 44.259 261.125 46.4532 259.183 49.834V49.8309Z" fill="white"/>
<path d="M308.242 49.8328H301.594V36.7891H333.877V41.9605H308.242V49.8328Z" fill="white"/>
<path d="M345.713 36.7695H378.048V42.0227H352.212V49.7858H345.713V36.7695Z" fill="white"/>
<path d="M92.4727 85.6196C96.4759 76.2663 100.39 67.1133 104.311 57.9512H110.932C107.067 67.2347 103.229 76.4515 99.4088 85.6196H92.4727Z" fill="white"/>
<path d="M149.525 57.9766H156.021V85.6723C153.838 85.8422 151.74 85.7876 149.525 85.7026V57.9766Z" fill="white"/>
<path d="M237.792 57.384C238.988 57.8817 240.285 57.7876 241.523 57.9909C242.496 68.7767 239.48 78.743 231.257 82.9796C230.914 81.0343 231.339 79.0556 230.728 77.1983C230.688 76.998 230.651 76.7946 230.611 76.5883C230.871 75.2924 231.373 74.1027 232.116 73.0041C232.829 71.9511 233.244 70.7675 233.593 69.5536C234.673 65.7965 234.896 61.9635 234.575 58.0243C235.453 57.8665 236.33 57.8635 237.092 57.4325L237.798 57.3809L237.792 57.384Z" fill="white"/>
<path d="M202.578 75.1517C202.104 77.5189 202.309 79.9285 202.162 82.3291C195.434 79.1516 191.577 70.0047 192.568 57.9929C194.284 57.8108 196.079 58.0263 197.74 57.3556C197.932 57.5316 198.085 57.386 198.247 57.2949C198.682 57.5286 199.116 57.7592 199.578 58.0081C199.064 61.4101 199.48 64.7272 200.168 68.029C200.627 70.2202 201.871 72.0896 202.645 74.1503C202.621 74.4841 202.596 74.8179 202.575 75.1487L202.578 75.1517Z" fill="white"/>
<path d="M126.419 49.8309H119.443C118.642 47.9493 117.865 46.1254 116.954 43.9889C115.731 45.9585 115.263 47.9554 114.281 49.8127H107.807C109.691 45.4092 111.538 41.0967 113.397 36.7539H120.768C122.606 41.0087 124.468 45.3181 126.419 49.8339V49.8309Z" fill="white"/>
<path d="M32.4755 70.7148V78.2904H24.9531V70.7148H32.4755Z" fill="white"/>
<path d="M86.2038 78.3412H78.6855V70.7012H86.2038V78.3412Z" fill="white"/>
<path d="M78.6523 41.6031V34.0195H86.2133V41.6031H78.6523Z" fill="white"/>
<path d="M78.6895 43.2246H86.1854V50.7518H78.6895V43.2246Z" fill="white"/>
<path d="M78.5156 87.4207V79.8613H86.2086V87.4207H78.5156Z" fill="white"/>
<path d="M42.5996 59.8982H35V52.4395H42.5996V59.8982Z" fill="white"/>
<path d="M163.602 59.6441C169.238 57.2284 175.079 58.0599 181.22 57.8991C176.526 62.5302 170.834 63.8807 164.895 64.955C164.44 63.0795 164.017 61.3527 163.602 59.6411V59.6441Z" fill="white"/>
<path d="M230.675 45.8125C231.318 43.7276 231 41.5516 231.201 39.2695C235.633 41.6336 238.336 45.1995 240 49.7669C238.327 50.2282 236.611 49.6606 235.03 50.2464C234.783 50.2919 234.529 50.3404 234.275 50.389C233.666 50.2039 233.058 50.0188 232.483 49.8458C231.838 48.5954 230.77 47.6486 230.639 46.2252C230.651 46.0856 230.663 45.946 230.675 45.8095V45.8125Z" fill="white"/>
<path d="M200.519 50.2455C198.454 49.6446 196.28 50.2304 194.127 49.76C195.653 45.5173 198.167 42.176 202.354 39.6055C202.354 41.8725 202.354 43.9089 202.354 45.9482C202.354 46.5552 202.344 47.1652 202.751 47.6811C202.834 47.8055 202.916 47.93 202.999 48.0574C202.341 48.8495 202.286 50.1393 201.011 50.4216C200.873 50.288 200.754 50.1059 200.519 50.2455Z" fill="white"/>
<path d="M202.579 75.1519C202.604 74.818 202.628 74.4842 202.65 74.1504C202.986 74.4539 203.332 74.7513 203.659 75.0639C210.014 81.1456 218.219 82.5659 226.299 79.0273C227.828 78.3566 229.021 77.1306 230.608 76.5843C230.648 76.7876 230.688 76.994 230.724 77.1943C222.311 84.1562 210.096 83.273 202.576 75.1519H202.579Z" fill="#9855D9"/>
<path d="M202.996 48.0568C202.913 47.9323 202.831 47.8049 202.748 47.6804C204.516 45.0796 207.195 43.6593 209.972 42.5C216.547 39.7596 222.862 40.5942 228.899 44.1843C229.603 44.6031 230.199 45.1403 230.673 45.811C230.661 45.9536 230.649 46.0932 230.636 46.2328C229.263 45.8201 228.278 44.7579 227.015 44.1388C220.868 41.1161 214.74 41.1313 208.556 44.0174C206.427 45.0098 204.8 46.6456 202.996 48.0598V48.0568Z" fill="#9855D9"/>
<path d="M234.275 50.3926C234.526 50.3441 234.78 50.2955 235.028 50.25C236.34 52.4836 237.639 54.7172 237.792 57.3879C237.554 57.403 237.318 57.4213 237.083 57.4395C236.584 54.9206 235.327 52.6961 234.275 50.3926Z" fill="#9855D9"/>
<path d="M200.518 50.2435C200.754 50.1039 200.873 50.286 201.011 50.4195C200.09 52.7108 199.166 55.0051 198.246 57.2964C198.084 57.3874 197.931 57.5331 197.738 57.3571C197.858 54.6743 199.197 52.4619 200.518 50.2435Z" fill="#9855D9"/>
<path d="M207.57 61.3442C207.157 56.619 211.83 51.1746 217.812 51.217C223.048 51.2535 228.134 55.6782 228.03 61.6204C227.941 66.643 223.733 71.6383 217.534 71.5654C211.858 71.4987 207.185 66.4761 207.57 61.3412V61.3442Z" fill="#9855D9"/>
<path d="M394.361 80.223C393.254 79.088 394.101 77.5979 393.759 76.1867C396.395 73.3917 399.037 70.6148 401.652 67.8107C406.273 62.8609 411.215 58.2025 415.445 52.9067C417.956 49.7657 419.096 46.1725 417.98 42.1847C416.974 38.5885 413.797 36.5703 409.457 36.4004C404.634 36.2092 400.426 37.4686 397.138 41.1468C396.912 41.4017 396.585 41.5656 396.294 41.7781C394.725 40.9738 393.829 39.4928 392.389 38.4549C393.624 36.1394 395.606 34.6554 397.78 33.5052C403.472 30.4916 409.487 29.9848 415.616 31.9271C420.87 33.5932 423.815 38.1333 424.063 43.6111C424.335 49.62 421.742 54.3058 417.858 58.4999C412.916 63.8351 407.894 69.0974 402.909 74.3962C402.817 74.4933 402.765 74.6268 402.579 74.9394H425.984C426.201 76.7725 426.155 78.4386 426.023 80.2261H394.364L394.361 80.223Z" fill="#9855D9"/>
<path d="M466.707 55.5256C466.627 61.4556 465.737 67.2641 462.425 72.4597C459.037 77.7767 454.131 80.584 447.797 80.3716C441.195 80.1531 436.479 76.7024 433.457 70.9818C431.185 66.6754 430.323 62.0321 430.167 57.1825C430.001 52.0081 430.445 46.9613 432.442 42.142C435.653 34.3941 441.935 29.7205 450.602 30.7614C456.868 31.5141 460.933 35.2743 463.642 40.6641C465.979 45.3134 466.645 50.3208 466.707 55.5225V55.5256ZM435.772 55.4678C435.763 57.1825 435.873 58.8911 436.124 60.5845C436.638 64.0442 437.503 67.3855 439.623 70.2777C441.871 73.3459 444.978 74.9968 448.736 74.8633C453.027 74.7085 456.324 72.4841 458.122 68.642C462.043 60.269 461.93 51.7138 458.559 43.1951C457.367 40.1815 455.195 37.9024 452.058 36.7887C446.904 34.9587 441.84 36.9101 438.895 41.8204C436.375 46.0236 435.904 50.7153 435.769 55.4678H435.772Z" fill="#9855D9"/>
<path d="M504.499 74.8908C504.487 76.8634 505.104 78.6267 504.129 80.223H472.491C472.155 78.7875 472.393 77.3885 472.317 75.9439C474.681 73.4553 477.075 70.9941 479.403 68.4661C484.158 63.3039 489.305 58.4937 493.715 53.025C495.55 50.7489 496.758 48.1663 496.758 45.1588C496.758 40.2242 494.186 37.1165 489.275 36.5156C484.048 35.8783 479.271 36.8646 475.641 41.0709C475.329 41.432 474.956 41.6596 474.344 41.7082C473.197 40.6278 471.989 39.4928 470.705 38.2819C473.445 34.631 477.042 32.3731 481.473 31.4536C486.486 30.4157 491.437 30.3489 496.119 32.8344C501.502 35.6902 502.976 41.3197 502.425 46.4486C501.881 51.5288 499.07 55.4286 495.737 59.0248C490.871 64.272 485.932 69.4494 480.806 74.8878H504.496L504.499 74.8908Z" fill="#9855D9"/>
<path d="M529.905 80.6662C527.906 80.6345 525.907 80.2538 523.909 79.5241C521.91 78.7945 520.086 77.5652 518.437 75.8363C516.787 74.0915 515.463 71.736 514.463 68.7699C513.464 65.7879 512.964 62.0445 512.964 57.5398C512.964 53.2254 513.369 49.4027 514.178 46.0717C514.987 42.7249 516.16 39.9094 517.699 37.6254C519.238 35.3254 521.093 33.5806 523.267 32.391C525.455 31.2013 527.922 30.6065 530.666 30.6065C533.394 30.6065 535.821 31.1538 537.947 32.2482C540.088 33.3268 541.833 34.8337 543.181 36.7688C544.529 38.704 545.402 40.9325 545.798 43.4545H539.993C539.453 41.2656 538.407 39.4495 536.852 38.006C535.298 36.5626 533.236 35.8409 530.666 35.8409C526.891 35.8409 523.917 37.4826 521.744 40.766C519.587 44.0494 518.5 48.6572 518.484 54.5895H518.865C519.753 53.2412 520.808 52.0913 522.029 51.1396C523.267 50.172 524.631 49.4265 526.122 48.9031C527.613 48.3796 529.191 48.1179 530.856 48.1179C533.648 48.1179 536.202 48.8158 538.518 50.2116C540.833 51.5916 542.689 53.503 544.085 55.9457C545.481 58.3725 546.179 61.1562 546.179 64.2969C546.179 67.3106 545.505 70.0705 544.156 72.5767C542.808 75.067 540.913 77.0497 538.47 78.5249C536.043 79.9841 533.188 80.6979 529.905 80.6662ZM529.905 75.4318C531.903 75.4318 533.696 74.9322 535.282 73.9329C536.884 72.9336 538.145 71.5933 539.065 69.9119C540.001 68.2306 540.469 66.3589 540.469 64.2969C540.469 62.2824 540.017 60.4504 539.112 58.8008C538.224 57.1353 536.995 55.8108 535.425 54.8274C533.87 53.844 532.094 53.3523 530.095 53.3523C528.588 53.3523 527.184 53.6536 525.884 54.2564C524.583 54.8433 523.441 55.6522 522.458 56.6832C521.49 57.7143 520.729 58.896 520.173 60.2283C519.618 61.5449 519.341 62.9328 519.341 64.392C519.341 66.3272 519.793 68.1354 520.697 69.8168C521.617 71.4981 522.87 72.8543 524.456 73.8853C526.058 74.9163 527.874 75.4318 529.905 75.4318Z" fill="#9855D9"/>
</svg>
