<svg width="1104" height="882" viewBox="0 0 1104 882" fill="none" xmlns="http://www.w3.org/2000/svg">
<path d="M146.929 758.473H6.22632V808.355M146.929 758.473V795.192M146.929 758.473V694.734M146.929 758.473H169.441M362.405 649.008H146.929V694.734M362.405 649.008V603.976H435.57M362.405 649.008V694.734M435.57 603.976L458.083 274.89L447.63 270.733M435.57 603.976H447.63V677.414M447.63 270.733V262.419M447.63 270.733H660.694M447.63 262.419L461.299 256.877M447.63 262.419H660.694M461.299 256.877V183.438H477.379V151.569H514.364V89.2159M461.299 256.877H646.222M514.364 89.2159C514.364 89.2159 510.933 87.9492 508.735 87.1375M514.364 89.2159C530.444 69.8172 541.7 63.5819 554.564 63.5819C567.428 63.5819 583.509 74.6669 593.157 89.2159M508.735 87.1375C505.596 91.1959 500.695 97.5297 500.695 97.5297V66.3531L514.364 59.425L516.776 37.255C516.776 37.255 534.321 33.3563 541.7 26.8628C549.079 20.3694 554.564 4 554.564 4C554.564 4 560.192 21.3203 566.624 26.8628C573.057 32.4053 591.549 37.255 591.549 37.255L594.765 59.425L606.825 66.3531V97.5297C606.825 97.5297 603.395 91.1959 601.197 87.1375M508.735 87.1375C516.776 76.0525 527.228 57.3466 554.564 57.3466C581.901 57.3466 594.765 79.5166 601.197 87.1375M601.197 87.1375C598.057 87.9492 596.297 88.4043 593.157 89.2159M593.157 89.2159C593.471 113.566 593.961 151.569 593.961 151.569H630.142V183.438H646.222V256.877M646.222 256.877L660.694 262.419M660.694 262.419V270.733M660.694 270.733L650.242 274.89L670.342 603.976M670.342 603.976H742.704V649.008M670.342 603.976H660.694V677.414M742.704 649.008H958.984V695.427M742.704 649.008V694.734M958.984 758.473H1102.9V809.741M958.984 758.473V795.192M958.984 758.473V695.427M958.984 758.473H938.079M146.929 880.586L6.22632 880.408V808.355M146.929 880.586L349.541 880.842M146.929 880.586V808.355M349.541 758.473V740.46H660.694M349.541 758.473V795.192M349.541 758.473H330.244M349.541 880.842V795.192M349.541 880.842L396.173 880.901M742.704 740.46H752.352V758.473M742.704 740.46H660.694M742.704 740.46V694.734M660.694 740.46V721.061M660.694 721.061H447.63M660.694 721.061V677.414M447.63 721.061V740.46H362.405V694.734M447.63 721.061V677.414M447.63 677.414H508.735M660.694 677.414H599.589M146.929 808.355H6.22632M146.929 808.355V795.192M146.929 795.192H349.541M752.352 795.192H958.984M752.352 795.192V881.351M752.352 795.192V758.473M958.984 795.192V809.741M958.984 881.612L1102.9 881.794V809.741M958.984 881.612V809.741M958.984 881.612L752.352 881.351M958.984 809.741H1102.9M752.352 881.351L710.543 881.298M752.352 758.473H776.472M958.984 695.427L742.704 694.734M362.405 694.734H146.929M599.589 677.414V624.067H578.685M599.589 677.414H508.735M508.735 677.414V624.067H526.022M578.685 624.067V653.165M578.685 624.067H560.996M560.996 624.067V653.165M560.996 624.067H543.308M543.308 624.067V653.165M543.308 624.067H526.022M526.022 624.067V653.165M585.117 579.034H610.845V608.825H499.087V579.034H526.022M585.117 579.034V308.838H569.037M585.117 579.034H569.037M569.037 308.838V298.445H540.092M569.037 308.838V579.034M540.092 298.445V308.838H526.022V579.034M540.092 298.445V579.034M526.022 579.034H540.092M569.037 579.034H543.308H540.092M396.173 880.901V776.486H710.543V881.298M396.173 880.901L710.543 881.298M776.472 824.29V814.591H814.261V824.29M776.472 824.29V853.388H814.261V824.29M776.472 824.29H814.261M838.381 824.29V814.591H876.17V824.29M838.381 824.29V853.388H876.17V824.29M838.381 824.29H876.17M900.291 824.29V853.388H938.079V824.29M900.291 824.29V814.591H938.079V824.29M900.291 824.29H938.079M989.536 840.918V828.447H1021.7V840.918M989.536 840.918V865.166H1021.7V840.918M989.536 840.918H1021.7M1082 840.918V828.447H1047.43V840.918M1082 840.918V865.166H1047.43V840.918M1082 840.918H1047.43M938.079 758.473H900.291M938.079 758.473V729.375M900.291 758.473V729.375M900.291 758.473H876.17M900.291 729.375V717.597H938.079V729.375M900.291 729.375H938.079M876.17 758.473H838.381M876.17 758.473V729.375M838.381 758.473V729.375M838.381 758.473H814.261M838.381 729.375V717.597H876.17V729.375M838.381 729.375H876.17M814.261 758.473H776.472M814.261 758.473V729.375M776.472 758.473V729.375M776.472 729.375V717.597H814.261V729.375M776.472 729.375H814.261M89.8438 839.532V827.061H127.633V839.532M89.8438 839.532V865.166H127.633V839.532M89.8438 839.532H127.633M64.1154 839.532V865.166H25.5227V839.532M64.1154 839.532V827.061H25.5227V839.532M64.1154 839.532H25.5227M329.44 824.983H294.064M294.064 824.983V814.591H330.244V853.388H294.064V824.983ZM273.159 824.983V853.388H232.154V824.983M273.159 824.983V814.591H232.154V824.983M273.159 824.983H232.154M212.054 824.983V853.388H169.441V824.983M212.054 824.983V814.591H169.441V824.983M212.054 824.983H169.441M330.244 758.473H294.064M330.244 758.473V729.375M294.064 758.473V729.375M294.064 758.473H273.159M294.064 729.375V721.061H330.244V729.375M294.064 729.375H330.244M273.159 758.473H232.154M273.159 758.473V729.375M232.154 758.473V729.375M232.154 758.473H212.054M232.154 729.375V721.061H273.159V729.375M232.154 729.375H273.159M212.054 758.473H169.441M212.054 758.473V729.375M169.441 758.473V729.375M169.441 729.375V721.061H212.054V729.375M169.441 729.375H212.054M495.871 164.733V252.72H613.257V164.733H495.871ZM502.303 247.87H606.021V170.968H502.303V247.87ZM556.976 207.687L541.7 197.988L538.484 202.144L551.348 209.765V231.935H556.976V207.687ZM525.62 139.098H583.509L581.901 112.772C574.734 89.0467 569.037 79.5166 554.564 79.5166C540.092 79.5166 533.704 91.4187 528.032 112.772L525.62 139.098ZM577.077 134.249H531.248L534.464 112.772C541.251 93.5305 543.182 88.0544 554.564 87.1375C564.925 87.5012 566.231 92.6605 574.665 112.772L577.077 134.249ZM1058.68 800.734V784.8H1073.96V800.734H1058.68ZM928.431 784.8V769.558H914.763V784.8H928.431ZM865.718 784.8V769.558H852.05V784.8H865.718ZM807.025 784.8V769.558H794.161V784.8H807.025ZM928.431 688.499V672.564H914.763V688.499H928.431ZM865.718 688.499V672.564H852.05V688.499H865.718ZM807.025 688.499V672.564H794.161V688.499H807.025ZM710.543 725.218V707.898H693.659V725.218H710.543ZM710.543 698.198V680.878H693.659V698.198H710.543ZM710.543 673.95V656.629H693.659V673.95H710.543ZM710.543 649.008V630.303H693.659V649.008H710.543ZM320.596 784.8V769.558H305.32V784.8H320.596ZM260.295 784.8V769.558H245.019V784.8H260.295ZM197.582 784.8V769.558H182.306V784.8H197.582ZM38.3869 799.349V782.029H55.2712V799.349H38.3869ZM101.1 799.349V782.029H117.984V799.349H101.1ZM320.596 688.499V673.257H305.32V688.499H320.596ZM260.295 688.499V673.257H245.019V688.499H260.295ZM197.582 688.499V673.257H182.306V688.499H197.582ZM418.686 725.218V707.898H402.605V725.218H418.686ZM418.686 698.198V680.878H402.605V698.198H418.686ZM418.686 673.95V656.629H402.605V673.95H418.686ZM418.686 649.008V630.303H402.605V649.008H418.686ZM998.38 800.734V783.414H1015.26V800.734H998.38ZM554.564 179.282C571.449 179.282 589.941 196.602 589.941 209.765C589.941 222.929 577.077 239.556 556.976 239.556C536.876 239.556 518.384 226.393 518.384 209.765C518.384 193.138 537.68 179.282 554.564 179.282Z" stroke="white" strokeWidth="2.14306"/>
<path d="M142.703 758.473H2V808.355M142.703 758.473V795.192M142.703 758.473V694.734M142.703 758.473H165.215M358.178 649.008H142.703V694.734M358.178 649.008V603.976H431.344M358.178 649.008V694.734M431.344 603.976L453.856 274.89L443.404 270.733M431.344 603.976H443.404V677.414M443.404 270.733V262.419M443.404 270.733H656.468M443.404 262.419L457.072 256.877M443.404 262.419H656.468M457.072 256.877V183.438H473.153V151.569H510.137V89.2159M457.072 256.877H641.996M510.137 89.2159C510.137 89.2159 506.707 87.9492 504.509 87.1375M510.137 89.2159C526.217 69.8172 537.474 63.5819 550.338 63.5819C563.202 63.5819 579.282 74.6669 588.931 89.2159M504.509 87.1375C501.369 91.1959 496.469 97.5297 496.469 97.5297V66.3531L510.137 59.425L512.549 37.255C512.549 37.255 530.095 33.3563 537.474 26.8628C544.852 20.3694 550.338 4 550.338 4C550.338 4 555.966 21.3203 562.398 26.8628C568.83 32.4053 587.323 37.255 587.323 37.255L590.539 59.425L602.599 66.3531V97.5297C602.599 97.5297 599.169 91.1959 596.971 87.1375M504.509 87.1375C512.549 76.0525 523.001 57.3466 550.338 57.3466C577.674 57.3466 590.539 79.5166 596.971 87.1375M596.971 87.1375C593.831 87.9492 592.071 88.4043 588.931 89.2159M588.931 89.2159C589.245 113.566 589.735 151.569 589.735 151.569H625.915V183.438H641.996V256.877M641.996 256.877L656.468 262.419M656.468 262.419V270.733M656.468 270.733L646.016 274.89L666.116 603.976M666.116 603.976H738.477V649.008M666.116 603.976H656.468V677.414M738.477 649.008H954.757V695.427M738.477 649.008V694.734M954.757 758.473H1098.68V809.741M954.757 758.473V795.192M954.757 758.473V695.427M954.757 758.473H933.853M142.703 880.586L2 880.408V808.355M142.703 880.586L345.314 880.842M142.703 880.586V808.355M345.314 758.473V740.46H656.468M345.314 758.473V795.192M345.314 758.473H326.018M345.314 880.842V795.192M345.314 880.842L391.947 880.901M738.477 740.46H748.126V758.473M738.477 740.46H656.468M738.477 740.46V694.734M656.468 740.46V721.061M656.468 721.061H443.404M656.468 721.061V677.414M443.404 721.061V740.46H358.178V694.734M443.404 721.061V677.414M443.404 677.414H504.509M656.468 677.414H595.363M142.703 808.355H2M142.703 808.355V795.192M142.703 795.192H345.314M748.126 795.192H954.757M748.126 795.192V881.351M748.126 795.192V758.473M954.757 795.192V809.741M954.757 881.612L1098.68 881.794V809.741M954.757 881.612V809.741M954.757 881.612L748.126 881.351M954.757 809.741H1098.68M748.126 881.351L706.317 881.298M748.126 758.473H772.246M954.757 695.427L738.477 694.734M358.178 694.734H142.703M595.363 677.414V624.067H574.458M595.363 677.414H504.509M504.509 677.414V624.067H521.795M574.458 624.067V653.165M574.458 624.067H556.77M556.77 624.067V653.165M556.77 624.067H539.082M539.082 624.067V653.165M539.082 624.067H521.795M521.795 624.067V653.165M580.89 579.034H606.619V608.825H494.861V579.034H521.795M580.89 579.034V308.838H564.81M580.89 579.034H564.81M564.81 308.838V298.445H535.866M564.81 308.838V579.034M535.866 298.445V308.838H521.795V579.034M535.866 298.445V579.034M521.795 579.034H535.866M564.81 579.034H539.082H535.866M391.947 880.901V776.486H706.317V881.298M391.947 880.901L706.317 881.298M772.246 824.29V814.591H810.035V824.29M772.246 824.29V853.388H810.035V824.29M772.246 824.29H810.035M834.155 824.29V814.591H871.944V824.29M834.155 824.29V853.388H871.944V824.29M834.155 824.29H871.944M896.064 824.29V853.388H933.853V824.29M896.064 824.29V814.591H933.853V824.29M896.064 824.29H933.853M985.31 840.918V828.447H1017.47V840.918M985.31 840.918V865.166H1017.47V840.918M985.31 840.918H1017.47M1077.77 840.918V828.447H1043.2V840.918M1077.77 840.918V865.166H1043.2V840.918M1077.77 840.918H1043.2M933.853 758.473H896.064M933.853 758.473V729.375M896.064 758.473V729.375M896.064 758.473H871.944M896.064 729.375V717.597H933.853V729.375M896.064 729.375H933.853M871.944 758.473H834.155M871.944 758.473V729.375M834.155 758.473V729.375M834.155 758.473H810.035M834.155 729.375V717.597H871.944V729.375M834.155 729.375H871.944M810.035 758.473H772.246M810.035 758.473V729.375M772.246 758.473V729.375M772.246 729.375V717.597H810.035V729.375M772.246 729.375H810.035M85.6175 839.532V827.061H123.406V839.532M85.6175 839.532V865.166H123.406V839.532M85.6175 839.532H123.406M59.889 839.532V865.166H21.2963V839.532M59.889 839.532V827.061H21.2963V839.532M59.889 839.532H21.2963M325.214 824.983H289.837M289.837 824.983V814.591H326.018V853.388H289.837V824.983ZM268.933 824.983V853.388H227.928V824.983M268.933 824.983V814.591H227.928V824.983M268.933 824.983H227.928M207.828 824.983V853.388H165.215V824.983M207.828 824.983V814.591H165.215V824.983M207.828 824.983H165.215M326.018 758.473H289.837M326.018 758.473V729.375M289.837 758.473V729.375M289.837 758.473H268.933M289.837 729.375V721.061H326.018V729.375M289.837 729.375H326.018M268.933 758.473H227.928M268.933 758.473V729.375M227.928 758.473V729.375M227.928 758.473H207.828M227.928 729.375V721.061H268.933V729.375M227.928 729.375H268.933M207.828 758.473H165.215M207.828 758.473V729.375M165.215 758.473V729.375M165.215 729.375V721.061H207.828V729.375M165.215 729.375H207.828M491.645 164.733V252.72H609.031V164.733H491.645ZM498.077 247.87H601.795V170.968H498.077V247.87ZM552.75 207.687L537.474 197.988L534.258 202.144L547.122 209.765V231.935H552.75V207.687ZM521.393 139.098H579.282L577.674 112.772C570.508 89.0467 564.81 79.5166 550.338 79.5166C535.866 79.5166 529.477 91.4187 523.805 112.772L521.393 139.098ZM572.85 134.249H527.022L530.238 112.772C537.025 93.5305 538.956 88.0544 550.338 87.1375C560.699 87.5012 562.005 92.6605 570.438 112.772L572.85 134.249ZM1054.46 800.734V784.8H1069.73V800.734H1054.46ZM924.205 784.8V769.558H910.536V784.8H924.205ZM861.492 784.8V769.558H847.823V784.8H861.492ZM802.799 784.8V769.558H789.934V784.8H802.799ZM924.205 688.499V672.564H910.536V688.499H924.205ZM861.492 688.499V672.564H847.823V688.499H861.492ZM802.799 688.499V672.564H789.934V688.499H802.799ZM706.317 725.218V707.898H689.432V725.218H706.317ZM706.317 698.198V680.878H689.432V698.198H706.317ZM706.317 673.95V656.629H689.432V673.95H706.317ZM706.317 649.008V630.303H689.432V649.008H706.317ZM316.37 784.8V769.558H301.093V784.8H316.37ZM256.069 784.8V769.558H240.792V784.8H256.069ZM193.355 784.8V769.558H178.079V784.8H193.355ZM34.1606 799.349V782.029H51.0449V799.349H34.1606ZM96.8737 799.349V782.029H113.758V799.349H96.8737ZM316.37 688.499V673.257H301.093V688.499H316.37ZM256.069 688.499V673.257H240.792V688.499H256.069ZM193.355 688.499V673.257H178.079V688.499H193.355ZM414.459 725.218V707.898H398.379V725.218H414.459ZM414.459 698.198V680.878H398.379V698.198H414.459ZM414.459 673.95V656.629H398.379V673.95H414.459ZM414.459 649.008V630.303H398.379V649.008H414.459ZM994.154 800.734V783.414H1011.04V800.734H994.154ZM550.338 179.282C567.222 179.282 585.715 196.602 585.715 209.765C585.715 222.929 572.85 239.556 552.75 239.556C532.65 239.556 514.157 226.393 514.157 209.765C514.157 193.138 533.454 179.282 550.338 179.282Z" stroke="#1F95FC" strokeWidth="2.14306"/>
</svg>
